{
  "accessors": [
    {
      "bufferView": 2,
      "componentType": 5126,
      "count": 339,
      "max": [
        7.832799911499023,
        10.824501037597656,
        -0.055099982768297195
      ],
      "min": [
        -7.511498928070068,
        -2.587399959564209,
        -3.0927999019622803
      ],
      "type": "VEC3"
    },
    {
      "bufferView": 2,
      "byteOffset": 4068,
      "componentType": 5126,
      "count": 339,
      "max": [
        0.9831341505050659,
        0.9981927275657654,
        0.9961420297622681
      ],
      "min": [
        -0.9834550023078918,
        -0.9889966249465942,
        -0.9996035695075989
      ],
      "type": "VEC3"
    },
    {
      "bufferView": 3,
      "componentType": 5126,
      "count": 339,
      "max": [
        0.9993759989738464,
        0.9978945255279541,
        0.7231095433235168,
        1.0
      ],
      "min": [
        -0.9999281167984009,
        -0.9971498847007751,
        -0.5935890078544617,
        -1.0
      ],
      "type": "VEC4"
    },
    {
      "bufferView": 1,
      "componentType": 5126,
      "count": 339,
      "max": [
        0.9746000170707703,
        0.9883000254631042
      ],
      "min": [
        0.021400000900030136,
        0.010299980640411377
      ],
      "type": "VEC2"
    },
    {
      "bufferView": 0,
      "componentType": 5125,
      "count": 1872,
      "type": "SCALAR"
    },
    {
      "bufferView": 2,
      "byteOffset": 8136,
      "componentType": 5126,
      "count": 157,
      "max": [
        -0.47520068287849426,
        5.306600570678711,
        -0.5457999110221863
      ],
      "min": [
        -10.824501037597656,
        -7.222199440002441,
        -2.9467999935150146
      ],
      "type": "VEC3"
    },
    {
      "bufferView": 2,
      "byteOffset": 10020,
      "componentType": 5126,
      "count": 157,
      "max": [
        0.9889965653419495,
        0.9831342101097107,
        0.9961420297622681
      ],
      "min": [
        -0.9981927871704102,
        -0.9466983079910278,
        -0.9996035695075989
      ],
      "type": "VEC3"
    },
    {
      "bufferView": 3,
      "byteOffset": 5424,
      "componentType": 5126,
      "count": 157,
      "max": [
        0.2992246448993683,
        0.9988114237785339,
        0.6407946348190308,
        1.0
      ],
      "min": [
        -0.9849993586540222,
        -0.9998646378517151,
        -0.5935889482498169,
        -1.0
      ],
      "type": "VEC4"
    },
    {
      "bufferView": 1,
      "byteOffset": 2712,
      "componentType": 5126,
      "count": 157,
      "max": [
        0.9746000170707703,
        0.9883000254631042
      ],
      "min": [
        0.021400000900030136,
        0.010299980640411377
      ],
      "type": "VEC2"
    },
    {
      "bufferView": 0,
      "byteOffset": 7488,
      "componentType": 5125,
      "count": 864,
      "type": "SCALAR"
    },
    {
      "bufferView": 2,
      "byteOffset": 11904,
      "componentType": 5126,
      "count": 157,
      "max": [
        7.222200870513916,
        -0.4752001166343689,
        -0.5457999110221863
      ],
      "min": [
        -5.306598663330078,
        -10.824501037597656,
        -2.9467999935150146
      ],
      "type": "VEC3"
    },
    {
      "bufferView": 2,
      "byteOffset": 13788,
      "componentType": 5126,
      "count": 157,
      "max": [
        0.9466982483863831,
        0.988996684551239,
        0.9961420297622681
      ],
      "min": [
        -0.9831343293190002,
        -0.9981927871704102,
        -0.9996035695075989
      ],
      "type": "VEC3"
    },
    {
      "bufferView": 3,
      "byteOffset": 7936,
      "componentType": 5126,
      "count": 157,
      "max": [
        0.9998646378517151,
        0.299224853515625,
        0.6407946348190308,
        1.0
      ],
      "min": [
        -0.9988114833831787,
        -0.9849994778633118,
        -0.5935889482498169,
        -1.0
      ],
      "type": "VEC4"
    },
    {
      "bufferView": 1,
      "byteOffset": 3968,
      "componentType": 5126,
      "count": 157,
      "max": [
        0.9746000170707703,
        0.9883000254631042
      ],
      "min": [
        0.021400000900030136,
        0.010299980640411377
      ],
      "type": "VEC2"
    },
    {
      "bufferView": 0,
      "byteOffset": 10944,
      "componentType": 5125,
      "count": 864,
      "type": "SCALAR"
    },
    {
      "bufferView": 2,
      "byteOffset": 15672,
      "componentType": 5126,
      "count": 157,
      "max": [
        10.824501037597656,
        7.222199440002441,
        -0.5457999110221863
      ],
      "min": [
        0.4752006232738495,
        -5.306600570678711,
        -2.9467999935150146
      ],
      "type": "VEC3"
    },
    {
      "bufferView": 2,
      "byteOffset": 17556,
      "componentType": 5126,
      "count": 157,
      "max": [
        0.9981927871704102,
        0.9466983079910278,
        0.9961420297622681
      ],
      "min": [
        -0.9889965653419495,
        -0.9831342101097107,
        -0.9996035695075989
      ],
      "type": "VEC3"
    },
    {
      "bufferView": 3,
      "byteOffset": 10448,
      "componentType": 5126,
      "count": 157,
      "max": [
        0.9849993586540222,
        0.9998646378517151,
        0.6407946944236755,
        1.0
      ],
      "min": [
        -0.2992246150970459,
        -0.9988114833831787,
        -0.5935889482498169,
        -1.0
      ],
      "type": "VEC4"
    },
    {
      "bufferView": 1,
      "byteOffset": 5224,
      "componentType": 5126,
      "count": 157,
      "max": [
        0.9746000170707703,
        0.9883000254631042
      ],
      "min": [
        0.021400000900030136,
        0.010299980640411377
      ],
      "type": "VEC2"
    },
    {
      "bufferView": 0,
      "byteOffset": 14400,
      "componentType": 5125,
      "count": 864,
      "type": "SCALAR"
    },
    {
      "bufferView": 2,
      "byteOffset": 19440,
      "componentType": 5126,
      "count": 3012,
      "max": [
        0.13424746692180634,
        0.20289918780326843,
        1.4253689050674438
      ],
      "min": [
        -0.13695035874843597,
        -0.10893440246582031,
        1.2366142272949219
      ],
      "type": "VEC3"
    },
    {
      "bufferView": 2,
      "byteOffset": 55584,
      "componentType": 5126,
      "count": 3012,
      "max": [
        0.9999669194221497,
        0.9929589033126831,
        0.9990821480751038
      ],
      "min": [
        -0.9999539852142334,
        -1.0,
        -1.0
      ],
      "type": "VEC3"
    },
    {
      "bufferView": 1,
      "byteOffset": 6480,
      "componentType": 5126,
      "count": 3012,
      "max": [
        0.9931640625,
        0.994140625
      ],
      "min": [
        0.00414276123046875,
        0.004459381103515625
      ],
      "type": "VEC2"
    },
    {
      "bufferView": 0,
      "byteOffset": 17856,
      "componentType": 5125,
      "count": 11469,
      "type": "SCALAR"
    },
    {
      "bufferView": 2,
      "byteOffset": 91728,
      "componentType": 5126,
      "count": 3037,
      "max": [
        0.4299609661102295,
        0.30460065603256226,
        1.1014511585235596
      ],
      "min": [
        -0.38029593229293823,
        -0.21488940715789795,
        -0.8176987171173096
      ],
      "type": "VEC3"
    },
    {
      "bufferView": 2,
      "byteOffset": 128172,
      "componentType": 5126,
      "count": 3037,
      "max": [
        0.9997448921203613,
        0.9993332028388977,
        0.9995651245117188
      ],
      "min": [
        -0.9992580413818359,
        -0.9992923140525818,
        -0.9996630549430847
      ],
      "type": "VEC3"
    },
    {
      "bufferView": 1,
      "byteOffset": 30576,
      "componentType": 5126,
      "count": 3037,
      "max": [
        0.99853515625,
        0.9951171875
      ],
      "min": [
        0.005615234375,
        0.0013666152954101563
      ],
      "type": "VEC2"
    },
    {
      "bufferView": 0,
      "byteOffset": 63732,
      "componentType": 5125,
      "count": 14766,
      "type": "SCALAR"
    },
    {
      "bufferView": 2,
      "byteOffset": 164616,
      "componentType": 5126,
      "count": 1162,
      "max": [
        0.10655253380537033,
        0.13949604332447052,
        1.309210181236267
      ],
      "min": [
        -0.10031375288963318,
        -0.09302374720573425,
        1.1256554126739502
      ],
      "type": "VEC3"
    },
    {
      "bufferView": 2,
      "byteOffset": 178560,
      "componentType": 5126,
      "count": 1162,
      "max": [
        0.9999555945396423,
        0.9941421747207642,
        0.9143941402435303
      ],
      "min": [
        -0.9999628663063049,
        -0.9988530278205872,
        -0.9992837309837341
      ],
      "type": "VEC3"
    },
    {
      "bufferView": 1,
      "byteOffset": 54872,
      "componentType": 5126,
      "count": 1162,
      "max": [
        0.98974609375,
        0.9964237213134766
      ],
      "min": [
        0.00177764892578125,
        0.00390625
      ],
      "type": "VEC2"
    },
    {
      "bufferView": 0,
      "byteOffset": 122796,
      "componentType": 5125,
      "count": 5163,
      "type": "SCALAR"
    },
    {
      "bufferView": 2,
      "byteOffset": 192504,
      "componentType": 5126,
      "count": 186,
      "max": [
        0.07037310302257538,
        0.15111160278320313,
        1.210663080215454
      ],
      "min": [
        -0.06491219252347946,
        0.13063280284404755,
        1.1841888427734375
      ],
      "type": "VEC3"
    },
    {
      "bufferView": 2,
      "byteOffset": 194736,
      "componentType": 5126,
      "count": 186,
      "max": [
        0.9843840003013611,
        0.9766188859939575,
        0.9704205393791199
      ],
      "min": [
        -0.9843099117279053,
        -0.976853609085083,
        -0.9984467625617981
      ],
      "type": "VEC3"
    },
    {
      "bufferView": 1,
      "byteOffset": 64168,
      "componentType": 5126,
      "count": 186,
      "max": [
        0.59765625,
        0.98602294921875
      ],
      "min": [
        0.004550933837890625,
        0.02197265625
      ],
      "type": "VEC2"
    },
    {
      "bufferView": 0,
      "byteOffset": 143448,
      "componentType": 5125,
      "count": 960,
      "type": "SCALAR"
    },
    {
      "bufferView": 2,
      "byteOffset": 196968,
      "componentType": 5126,
      "count": 2190,
      "max": [
        0.11469654738903046,
        0.18717706203460693,
        1.2994346618652344
      ],
      "min": [
        -0.10915489494800568,
        -0.025732502341270447,
        1.0516159534454346
      ],
      "type": "VEC3"
    },
    {
      "bufferView": 2,
      "byteOffset": 223248,
      "componentType": 5126,
      "count": 2190,
      "max": [
        0.9959821701049805,
        0.9999483823776245,
        0.9948919415473938
      ],
      "min": [
        -0.9960439205169678,
        -1.0,
        -0.9997784495353699
      ],
      "type": "VEC3"
    },
    {
      "bufferView": 1,
      "byteOffset": 65656,
      "componentType": 5126,
      "count": 2190,
      "max": [
        0.99853515625,
        0.9987659454345703
      ],
      "min": [
        0.00107574462890625,
        0.1533203125
      ],
      "type": "VEC2"
    },
    {
      "bufferView": 0,
      "byteOffset": 147288,
      "componentType": 5125,
      "count": 10740,
      "type": "SCALAR"
    },
    {
      "bufferView": 2,
      "byteOffset": 249528,
      "componentType": 5126,
      "count": 365,
      "max": [
        0.06980177760124207,
        0.15009701251983643,
        1.2029849290847778
      ],
      "min": [
        -0.06433417648077011,
        0.1283741593360901,
        1.1826802492141724
      ],
      "type": "VEC3"
    },
    {
      "bufferView": 2,
      "byteOffset": 253908,
      "componentType": 5126,
      "count": 365,
      "max": [
        0.9962446689605713,
        0.994935929775238,
        0.9893373847007751
      ],
      "min": [
        -0.9961804151535034,
        -0.979800283908844,
        -0.9859519004821777
      ],
      "type": "VEC3"
    },
    {
      "bufferView": 1,
      "byteOffset": 83176,
      "componentType": 5126,
      "count": 365,
      "max": [
        0.9925156235694885,
        0.9875733256340027
      ],
      "min": [
        0.566911518573761,
        0.012556850910186768
      ],
      "type": "VEC2"
    },
    {
      "bufferView": 0,
      "byteOffset": 190248,
      "componentType": 5125,
      "count": 1554,
      "type": "SCALAR"
    },
    {
      "bufferView": 2,
      "byteOffset": 258288,
      "componentType": 5126,
      "count": 4149,
      "max": [
        0.4471385180950165,
        0.3960665762424469,
        1.1311606168746948
      ],
      "min": [
        -0.43878093361854553,
        -0.10345417261123657,
        0.7031286954879761
      ],
      "type": "VEC3"
    },
    {
      "bufferView": 2,
      "byteOffset": 308076,
      "componentType": 5126,
      "count": 4149,
      "max": [
        0.9996522665023804,
        0.9999306797981262,
        0.9998236298561096
      ],
      "min": [
        -0.9998152256011963,
        -0.9997502565383911,
        -1.0
      ],
      "type": "VEC3"
    },
    {
      "bufferView": 1,
      "byteOffset": 86096,
      "componentType": 5126,
      "count": 4149,
      "max": [
        0.9949236512184143,
        0.8632256388664246
      ],
      "min": [
        0.0050753275863826275,
        0.18160605430603027
      ],
      "type": "VEC2"
    },
    {
      "bufferView": 0,
      "byteOffset": 196464,
      "componentType": 5125,
      "count": 20907,
      "type": "SCALAR"
    },
    {
      "bufferView": 2,
      "byteOffset": 357864,
      "componentType": 5126,
      "count": 3842,
      "max": [
        0.14820320904254913,
        0.21429219841957092,
        1.4370174407958984
      ],
      "min": [
        -0.1414778083562851,
        -0.09893450140953064,
        1.238345742225647
      ],
      "type": "VEC3"
    },
    {
      "bufferView": 2,
      "byteOffset": 403968,
      "componentType": 5126,
      "count": 3842,
      "max": [
        0.9999716877937317,
        0.9971855282783508,
        0.9993900656700134
      ],
      "min": [
        -0.9998255968093872,
        -0.9998754262924194,
        -0.9992214441299438
      ],
      "type": "VEC3"
    },
    {
      "bufferView": 1,
      "byteOffset": 119288,
      "componentType": 5126,
      "count": 3842,
      "max": [
        0.9962279200553894,
        0.9962590336799622
      ],
      "min": [
        0.0009765625,
        0.0009765625
      ],
      "type": "VEC2"
    },
    {
      "bufferView": 0,
      "byteOffset": 280092,
      "componentType": 5125,
      "count": 15900,
      "type": "SCALAR"
    },
    {
      "bufferView": 2,
      "byteOffset": 450072,
      "componentType": 5126,
      "count": 1723,
      "max": [
        5.231653213500977,
        2.211473226547241,
        4.208099842071533
      ],
      "min": [
        -5.236502147454303e-07,
        -2.1577985286712646,
        -1.4717998504638672
      ],
      "type": "VEC3"
    },
    {
      "bufferView": 2,
      "byteOffset": 470748,
      "componentType": 5126,
      "count": 1723,
      "max": [
        0.9996715188026428,
        0.999819278717041,
        1.0
      ],
      "min": [
        -0.9961801171302795,
        -0.9998193383216858,
        -1.0
      ],
      "type": "VEC3"
    },
    {
      "bufferView": 3,
      "byteOffset": 12960,
      "componentType": 5126,
      "count": 1723,
      "max": [
        0.9987894892692566,
        0.9988534450531006,
        0.9993121027946472,
        1.0
      ],
      "min": [
        -1.0,
        -1.0,
        -0.9998151063919067,
        -1.0
      ],
      "type": "VEC4"
    },
    {
      "bufferView": 1,
      "byteOffset": 150024,
      "componentType": 5126,
      "count": 1723,
      "max": [
        0.9965819716453552,
        0.9962999820709229
      ],
      "min": [
        0.0035000001080334187,
        0.0019530057907104492
      ],
      "type": "VEC2"
    },
    {
      "bufferView": 0,
      "byteOffset": 343692,
      "componentType": 5125,
      "count": 7284,
      "type": "SCALAR"
    },
    {
      "bufferView": 2,
      "byteOffset": 491424,
      "componentType": 5126,
      "count": 1723,
      "max": [
        2.211473226547241,
        1.8921056721410423e-07,
        4.208099842071533
      ],
      "min": [
        -2.1577985286712646,
        -5.231653213500977,
        -1.4717998504638672
      ],
      "type": "VEC3"
    },
    {
      "bufferView": 2,
      "byteOffset": 512100,
      "componentType": 5126,
      "count": 1723,
      "max": [
        0.999819278717041,
        0.9961801171302795,
        1.0
      ],
      "min": [
        -0.9998193383216858,
        -0.9996715188026428,
        -1.0
      ],
      "type": "VEC3"
    },
    {
      "bufferView": 3,
      "byteOffset": 40528,
      "componentType": 5126,
      "count": 1723,
      "max": [
        0.9988534450531006,
        1.0,
        0.9993121027946472,
        1.0
      ],
      "min": [
        -1.0,
        -0.9987894892692566,
        -0.9998151063919067,
        -1.0
      ],
      "type": "VEC4"
    },
    {
      "bufferView": 1,
      "byteOffset": 163808,
      "componentType": 5126,
      "count": 1723,
      "max": [
        0.9965819716453552,
        0.9962999820709229
      ],
      "min": [
        0.0035000001080334187,
        0.0019530057907104492
      ],
      "type": "VEC2"
    },
    {
      "bufferView": 0,
      "byteOffset": 372828,
      "componentType": 5125,
      "count": 7284,
      "type": "SCALAR"
    },
    {
      "bufferView": 2,
      "byteOffset": 532776,
      "componentType": 5126,
      "count": 1723,
      "max": [
        5.321243747857807e-07,
        2.157796859741211,
        4.208099842071533
      ],
      "min": [
        -5.231652736663818,
        -2.2114744186401367,
        -1.4717998504638672
      ],
      "type": "VEC3"
    },
    {
      "bufferView": 2,
      "byteOffset": 553452,
      "componentType": 5126,
      "count": 1723,
      "max": [
        1.0,
        0.999819278717041,
        1.0
      ],
      "min": [
        -0.9996715188026428,
        -1.0,
        -1.0
      ],
      "type": "VEC3"
    },
    {
      "bufferView": 3,
      "byteOffset": 68096,
      "componentType": 5126,
      "count": 1723,
      "max": [
        1.0,
        1.0,
        0.999312162399292,
        1.0
      ],
      "min": [
        -0.9987894892692566,
        -0.9988534450531006,
        -0.9998151063919067,
        -1.0
      ],
      "type": "VEC4"
    },
    {
      "bufferView": 1,
      "byteOffset": 177592,
      "componentType": 5126,
      "count": 1723,
      "max": [
        0.9965819716453552,
        0.9962999820709229
      ],
      "min": [
        0.0035000001080334187,
        0.0019530057907104492
      ],
      "type": "VEC2"
    },
    {
      "bufferView": 0,
      "byteOffset": 401964,
      "componentType": 5125,
      "count": 7284,
      "type": "SCALAR"
    },
    {
      "bufferView": 2,
      "byteOffset": 574128,
      "componentType": 5126,
      "count": 1723,
      "max": [
        2.1577987670898438,
        5.231653213500977,
        4.208099842071533
      ],
      "min": [
        -2.211472988128662,
        -1.7188226308917365e-07,
        -1.4717998504638672
      ],
      "type": "VEC3"
    },
    {
      "bufferView": 2,
      "byteOffset": 594804,
      "componentType": 5126,
      "count": 1723,
      "max": [
        0.999819278717041,
        0.9996715188026428,
        1.0
      ],
      "min": [
        -0.999819278717041,
        -0.9961801171302795,
        -1.0
      ],
      "type": "VEC3"
    },
    {
      "bufferView": 3,
      "byteOffset": 95664,
      "componentType": 5126,
      "count": 1723,
      "max": [
        1.0,
        0.9987894296646118,
        0.9993121027946472,
        1.0
      ],
      "min": [
        -0.9988534450531006,
        -1.0,
        -0.9998151063919067,
        -1.0
      ],
      "type": "VEC4"
    },
    {
      "bufferView": 1,
      "byteOffset": 191376,
      "componentType": 5126,
      "count": 1723,
      "max": [
        0.9965819716453552,
        0.9962999820709229
      ],
      "min": [
        0.0035000001080334187,
        0.0019530057907104492
      ],
      "type": "VEC2"
    },
    {
      "bufferView": 0,
      "byteOffset": 431100,
      "componentType": 5125,
      "count": 7284,
      "type": "SCALAR"
    },
    {
      "bufferView": 2,
      "byteOffset": 615480,
      "componentType": 5126,
      "count": 1712,
      "max": [
        1.1004483699798584,
        4.957798004150391,
        8.344714164733887
      ],
      "min": [
        -1.100280523300171,
        -4.957798004150391,
        6.013495445251465
      ],
      "type": "VEC3"
    },
    {
      "bufferView": 2,
      "byteOffset": 636024,
      "componentType": 5126,
      "count": 1712,
      "max": [
        0.9996404051780701,
        0.9993539452552795,
        0.9988327026367188
      ],
      "min": [
        -0.9998685717582703,
        -0.9993539452552795,
        -0.9997504353523254
      ],
      "type": "VEC3"
    },
    {
      "bufferView": 3,
      "byteOffset": 123232,
      "componentType": 5126,
      "count": 1712,
      "max": [
        0.9989393949508667,
        0.9989994764328003,
        0.9955098628997803,
        1.0
      ],
      "min": [
        -0.9999441504478455,
        -0.9989994764328003,
        -0.9983981847763062,
        -1.0
      ],
      "type": "VEC4"
    },
    {
      "bufferView": 1,
      "byteOffset": 205160,
      "componentType": 5126,
      "count": 1712,
      "max": [
        0.5390620231628418,
        0.8649359941482544
      ],
      "min": [
        0.002280999906361103,
        0.0034059882164001465
      ],
      "type": "VEC2"
    },
    {
      "bufferView": 0,
      "byteOffset": 460236,
      "componentType": 5125,
      "count": 6522,
      "type": "SCALAR"
    },
    {
      "bufferView": 2,
      "byteOffset": 656568,
      "componentType": 5126,
      "count": 32684,
      "max": [
        7.839992046356201,
        12.66217041015625,
        0.4200170040130615
      ],
      "min": [
        -8.054677963256836,
        1.6603448390960693,
        -2.7816243171691895
      ],
      "type": "VEC3"
    },
    {
      "bufferView": 2,
      "byteOffset": 1048776,
      "componentType": 5126,
      "count": 32684,
      "max": [
        0.9998400807380676,
        0.999937117099762,
        1.0
      ],
      "min": [
        -0.999703586101532,
        -0.9995964765548706,
        -0.9999687075614929
      ],
      "type": "VEC3"
    },
    {
      "bufferView": 3,
      "byteOffset": 150624,
      "componentType": 5126,
      "count": 32684,
      "max": [
        0.9998739957809448,
        0.9999999403953552,
        0.9999349117279053,
        1.0
      ],
      "min": [
        -0.9999977350234985,
        -0.9998414516448975,
        -0.9995510578155518,
        -1.0
      ],
      "type": "VEC4"
    },
    {
      "bufferView": 1,
      "byteOffset": 218856,
      "componentType": 5126,
      "count": 32684,
      "max": [
        0.9941410422325134,
        0.9973300695419312
      ],
      "min": [
        0.0070420000702142715,
        0.5066070556640625
      ],
      "type": "VEC2"
    },
    {
      "bufferView": 0,
      "byteOffset": 486324,
      "componentType": 5125,
      "count": 134514,
      "type": "SCALAR"
    },
    {
      "bufferView": 2,
      "byteOffset": 1440984,
      "componentType": 5126,
      "count": 2195,
      "max": [
        6.971029758453369,
        10.347833633422852,
        -0.2982499599456787
      ],
      "min": [
        -6.192331314086914,
        6.594062328338623,
        -2.4896297454833984
      ],
      "type": "VEC3"
    },
    {
      "bufferView": 2,
      "byteOffset": 1467324,
      "componentType": 5126,
      "count": 2195,
      "max": [
        0.9990243911743164,
        0.9991761445999146,
        0.9995297193527222
      ],
      "min": [
        -0.9964817762374878,
        -0.9994679093360901,
        -0.9980658888816833
      ],
      "type": "VEC3"
    },
    {
      "bufferView": 3,
      "byteOffset": 673568,
      "componentType": 5126,
      "count": 2195,
      "max": [
        0.9982654452323914,
        0.9997042417526245,
        0.9998676776885986,
        1.0
      ],
      "min": [
        -0.9996944665908813,
        -0.9997990131378174,
        -0.99920654296875,
        -1.0
      ],
      "type": "VEC4"
    },
    {
      "bufferView": 1,
      "byteOffset": 480328,
      "componentType": 5126,
      "count": 2195,
      "max": [
        0.9941410422325134,
        0.9973300695419312
      ],
      "min": [
        0.0070420000702142715,
        0.5066070556640625
      ],
      "type": "VEC2"
    },
    {
      "bufferView": 0,
      "byteOffset": 1024380,
      "componentType": 5125,
      "count": 9438,
      "type": "SCALAR"
    },
    {
      "bufferView": 2,
      "byteOffset": 1493664,
      "componentType": 5126,
      "count": 32684,
      "max": [
        7.839992046356201,
        12.66217041015625,
        0.4200170040130615
      ],
      "min": [
        -8.054677963256836,
        1.6603448390960693,
        -2.7816243171691895
      ],
      "type": "VEC3"
    },
    {
      "bufferView": 2,
      "byteOffset": 1885872,
      "componentType": 5126,
      "count": 32684,
      "max": [
        0.9998400807380676,
        0.999937117099762,
        1.0
      ],
      "min": [
        -0.999703586101532,
        -0.9995964765548706,
        -0.9999687075614929
      ],
      "type": "VEC3"
    },
    {
      "bufferView": 3,
      "byteOffset": 708688,
      "componentType": 5126,
      "count": 32684,
      "max": [
        0.9998739957809448,
        0.9999999403953552,
        0.9999349117279053,
        1.0
      ],
      "min": [
        -0.9999977350234985,
        -0.9998414516448975,
        -0.9995510578155518,
        -1.0
      ],
      "type": "VEC4"
    },
    {
      "bufferView": 1,
      "byteOffset": 497888,
      "componentType": 5126,
      "count": 32684,
      "max": [
        0.9941410422325134,
        0.9973300695419312
      ],
      "min": [
        0.0070420000702142715,
        0.5066070556640625
      ],
      "type": "VEC2"
    },
    {
      "bufferView": 0,
      "byteOffset": 1062132,
      "componentType": 5125,
      "count": 134514,
      "type": "SCALAR"
    },
    {
      "bufferView": 2,
      "byteOffset": 2278080,
      "componentType": 5126,
      "count": 2195,
      "max": [
        6.971029758453369,
        10.347833633422852,
        -0.2982499599456787
      ],
      "min": [
        -6.192331314086914,
        6.594062328338623,
        -2.4896297454833984
      ],
      "type": "VEC3"
    },
    {
      "bufferView": 2,
      "byteOffset": 2304420,
      "componentType": 5126,
      "count": 2195,
      "max": [
        0.9990243911743164,
        0.9991761445999146,
        0.9995297193527222
      ],
      "min": [
        -0.9964817762374878,
        -0.9994679093360901,
        -0.9980658888816833
      ],
      "type": "VEC3"
    },
    {
      "bufferView": 3,
      "byteOffset": 1231632,
      "componentType": 5126,
      "count": 2195,
      "max": [
        0.9982654452323914,
        0.9997042417526245,
        0.9998676776885986,
        1.0
      ],
      "min": [
        -0.9996944665908813,
        -0.9997990131378174,
        -0.99920654296875,
        -1.0
      ],
      "type": "VEC4"
    },
    {
      "bufferView": 1,
      "byteOffset": 759360,
      "componentType": 5126,
      "count": 2195,
      "max": [
        0.9941410422325134,
        0.9973300695419312
      ],
      "min": [
        0.0070420000702142715,
        0.5066070556640625
      ],
      "type": "VEC2"
    },
    {
      "bufferView": 0,
      "byteOffset": 1600188,
      "componentType": 5125,
      "count": 9438,
      "type": "SCALAR"
    },
    {
      "bufferView": 2,
      "byteOffset": 2330760,
      "componentType": 5126,
      "count": 32684,
      "max": [
        7.839992046356201,
        12.66217041015625,
        0.4200170040130615
      ],
      "min": [
        -8.054677963256836,
        1.6603448390960693,
        -2.7816243171691895
      ],
      "type": "VEC3"
    },
    {
      "bufferView": 2,
      "byteOffset": 2722968,
      "componentType": 5126,
      "count": 32684,
      "max": [
        0.9998400807380676,
        0.999937117099762,
        1.0
      ],
      "min": [
        -0.999703586101532,
        -0.9995964765548706,
        -0.9999687075614929
      ],
      "type": "VEC3"
    },
    {
      "bufferView": 3,
      "byteOffset": 1266752,
      "componentType": 5126,
      "count": 32684,
      "max": [
        0.9998739957809448,
        0.9999999403953552,
        0.9999349117279053,
        1.0
      ],
      "min": [
        -0.9999977350234985,
        -0.9998414516448975,
        -0.9995510578155518,
        -1.0
      ],
      "type": "VEC4"
    },
    {
      "bufferView": 1,
      "byteOffset": 776920,
      "componentType": 5126,
      "count": 32684,
      "max": [
        0.9941410422325134,
        0.9973300695419312
      ],
      "min": [
        0.0070420000702142715,
        0.5066070556640625
      ],
      "type": "VEC2"
    },
    {
      "bufferView": 0,
      "byteOffset": 1637940,
      "componentType": 5125,
      "count": 134514,
      "type": "SCALAR"
    },
    {
      "bufferView": 2,
      "byteOffset": 3115176,
      "componentType": 5126,
      "count": 2195,
      "max": [
        6.971029758453369,
        10.347833633422852,
        -0.2982499599456787
      ],
      "min": [
        -6.192331314086914,
        6.594062328338623,
        -2.4896297454833984
      ],
      "type": "VEC3"
    },
    {
      "bufferView": 2,
      "byteOffset": 3141516,
      "componentType": 5126,
      "count": 2195,
      "max": [
        0.9990243911743164,
        0.9991761445999146,
        0.9995297193527222
      ],
      "min": [
        -0.9964817762374878,
        -0.9994679093360901,
        -0.9980658888816833
      ],
      "type": "VEC3"
    },
    {
      "bufferView": 3,
      "byteOffset": 1789696,
      "componentType": 5126,
      "count": 2195,
      "max": [
        0.9982654452323914,
        0.9997042417526245,
        0.9998676776885986,
        1.0
      ],
      "min": [
        -0.9996944665908813,
        -0.9997990131378174,
        -0.99920654296875,
        -1.0
      ],
      "type": "VEC4"
    },
    {
      "bufferView": 1,
      "byteOffset": 1038392,
      "componentType": 5126,
      "count": 2195,
      "max": [
        0.9941410422325134,
        0.9973300695419312
      ],
      "min": [
        0.0070420000702142715,
        0.5066070556640625
      ],
      "type": "VEC2"
    },
    {
      "bufferView": 0,
      "byteOffset": 2175996,
      "componentType": 5125,
      "count": 9438,
      "type": "SCALAR"
    },
    {
      "bufferView": 2,
      "byteOffset": 3167856,
      "componentType": 5126,
      "count": 28018,
      "max": [
        5.790800094604492,
        5.971113681793213,
        10.792600631713867
      ],
      "min": [
        -5.7667999267578125,
        -5.965102195739746,
        -2.4884493350982666
      ],
      "type": "VEC3"
    },
    {
      "bufferView": 2,
      "byteOffset": 3504072,
      "componentType": 5126,
      "count": 28018,
      "max": [
        1.0,
        1.0,
        1.0
      ],
      "min": [
        -1.0,
        -1.0,
        -1.0
      ],
      "type": "VEC3"
    },
    {
      "bufferView": 3,
      "byteOffset": 1824816,
      "componentType": 5126,
      "count": 28018,
      "max": [
        1.0,
        0.9999251365661621,
        0.9995558857917786,
        1.0
      ],
      "min": [
        -1.0,
        -0.9999251365661621,
        -0.9999441504478455,
        -1.0
      ],
      "type": "VEC4"
    },
    {
      "bufferView": 1,
      "byteOffset": 1055952,
      "componentType": 5126,
      "count": 28018,
      "max": [
        0.994100034236908,
        0.9968000650405884
      ],
      "min": [
        0.006686999928206205,
        0.0034000277519226074
      ],
      "type": "VEC2"
    },
    {
      "bufferView": 0,
      "byteOffset": 2213748,
      "componentType": 5125,
      "count": 128826,
      "type": "SCALAR"
    },
    {
      "bufferView": 2,
      "byteOffset": 3840288,
      "componentType": 5126,
      "count": 1299,
      "max": [
        1.364300012588501,
        6.908230304718018,
        0.41999971866607666
      ],
      "min": [
        -1.3884999752044678,
        4.296330451965332,
        -1.600000262260437
      ],
      "type": "VEC3"
    },
    {
      "bufferView": 2,
      "byteOffset": 3855876,
      "componentType": 5126,
      "count": 1299,
      "max": [
        0.998802125453949,
        0.98264479637146,
        1.0
      ],
      "min": [
        -0.9995483756065369,
        -0.9972856044769287,
        -0.9999015927314758
      ],
      "type": "VEC3"
    },
    {
      "bufferView": 1,
      "byteOffset": 1280096,
      "componentType": 5126,
      "count": 1299,
      "max": [
        0.994100034236908,
        0.9973000884056091
      ],
      "min": [
        0.007000000216066837,
        0.506600022315979
      ],
      "type": "VEC2"
    },
    {
      "bufferView": 0,
      "byteOffset": 2729052,
      "componentType": 5125,
      "count": 5946,
      "type": "SCALAR"
    },
    {
      "bufferView": 2,
      "byteOffset": 3871464,
      "componentType": 5126,
      "count": 41692,
      "max": [
        9.21793270111084,
        12.662172317504883,
        0.596186637878418
      ],
      "min": [
        -8.909771919250488,
        -2.3848862648010254,
        -2.793039321899414
      ],
      "type": "VEC3"
    },
    {
      "bufferView": 2,
      "byteOffset": 4371768,
      "componentType": 5126,
      "count": 41692,
      "max": [
        0.9998400807380676,
        0.9999879598617554,
        1.0
      ],
      "min": [
        -0.9998852014541626,
        -0.999596357345581,
        -0.9999687075614929
      ],
      "type": "VEC3"
    },
    {
      "bufferView": 3,
      "byteOffset": 2273104,
      "componentType": 5126,
      "count": 41692,
      "max": [
        0.9998737573623657,
        0.9999999403953552,
        0.9999348521232605,
        1.0
      ],
      "min": [
        -0.9999976754188538,
        -0.9998415112495422,
        -0.9998508095741272,
        -1.0
      ],
      "type": "VEC4"
    },
    {
      "bufferView": 1,
      "byteOffset": 1290488,
      "componentType": 5126,
      "count": 41692,
      "max": [
        0.9941410422325134,
        0.9973300695419312
      ],
      "min": [
        0.0070420000702142715,
        0.5066070556640625
      ],
      "type": "VEC2"
    },
    {
      "bufferView": 0,
      "byteOffset": 2752836,
      "componentType": 5125,
      "count": 169590,
      "type": "SCALAR"
    },
    {
      "bufferView": 2,
      "byteOffset": 4872072,
      "componentType": 5126,
      "count": 3692,
      "max": [
        7.000500679016113,
        7.9134626388549805,
        3.228391170501709
      ],
      "min": [
        -7.284332752227783,
        3.5197794437408447,
        -1.6404905319213867
      ],
      "type": "VEC3"
    },
    {
      "bufferView": 2,
      "byteOffset": 4916376,
      "componentType": 5126,
      "count": 3692,
      "max": [
        0.9996024370193481,
        0.9998438358306885,
        1.0
      ],
      "min": [
        -0.9996024370193481,
        -0.9998862147331238,
        -1.0
      ],
      "type": "VEC3"
    },
    {
      "bufferView": 3,
      "byteOffset": 2940176,
      "componentType": 5126,
      "count": 3692,
      "max": [
        0.9987199306488037,
        1.0,
        0.9998847246170044,
        1.0
      ],
      "min": [
        -1.0,
        -1.0,
        -0.9996364712715149,
        -1.0
      ],
      "type": "VEC4"
    },
    {
      "bufferView": 1,
      "byteOffset": 1624024,
      "componentType": 5126,
      "count": 3692,
      "max": [
        0.9990230798721313,
        0.9914699792861938
      ],
      "min": [
        0.007038000039756298,
        0.006348013877868652
      ],
      "type": "VEC2"
    },
    {
      "bufferView": 0,
      "byteOffset": 3431196,
      "componentType": 5125,
      "count": 15882,
      "type": "SCALAR"
    },
    {
      "bufferView": 2,
      "byteOffset": 4960680,
      "componentType": 5126,
      "count": 16593,
      "max": [
        6.417003631591797,
        6.392816066741943,
        9.221025466918945
      ],
      "min": [
        -6.4170026779174805,
        -6.393277645111084,
        3.48435115814209
      ],
      "type": "VEC3"
    },
    {
      "bufferView": 2,
      "byteOffset": 5159796,
      "componentType": 5126,
      "count": 16593,
      "max": [
        1.0,
        1.0,
        1.0
      ],
      "min": [
        -1.0,
        -1.0,
        -1.0
      ],
      "type": "VEC3"
    },
    {
      "bufferView": 3,
      "byteOffset": 2999248,
      "componentType": 5126,
      "count": 16593,
      "max": [
        1.0,
        1.0,
        1.0,
        1.0
      ],
      "min": [
        -1.0,
        -1.0,
        -1.0,
        -1.0
      ],
      "type": "VEC4"
    },
    {
      "bufferView": 1,
      "byteOffset": 1653560,
      "componentType": 5126,
      "count": 16593,
      "max": [
        0.9951170682907104,
        0.9952391386032104
      ],
      "min": [
        0.0035250000655651093,
        0.0039060115814208984
      ],
      "type": "VEC2"
    },
    {
      "bufferView": 0,
      "byteOffset": 3494724,
      "componentType": 5125,
      "count": 36585,
      "type": "SCALAR"
    }
  ],
  "asset": {
    "extras": {
      "author": "Groveruka (https://sketchfab.com/1990532792)",
      "license": "CC-BY-4.0 (http://creativecommons.org/licenses/by/4.0/)",
      "source": "https://sketchfab.com/3d-models/malevolent-shrine-jjkcc-for-gtasa-98c1455cf50b43b8a9471accd18afa85",
      "title": "Malevolent Shrine JJKCC for gtasa"
    },
    "generator": "Sketchfab-16.72.0",
    "version": "2.0"
  },
  "bufferViews": [
    {
      "buffer": 0,
      "byteLength": 3641064,
      "name": "floatBufferViews",
      "target": 34963
    },
    {
      "buffer": 0,
      "byteLength": 1786304,
      "byteOffset": 3641064,
      "byteStride": 8,
      "name": "floatBufferViews",
      "target": 34962
    },
    {
      "buffer": 0,
      "byteLength": 5358912,
      "byteOffset": 5427368,
      "byteStride": 12,
      "name": "floatBufferViews",
      "target": 34962
    },
    {
      "buffer": 0,
      "byteLength": 3264736,
      "byteOffset": 10786280,
      "byteStride": 16,
      "name": "floatBufferViews",
      "target": 34962
    }
  ],
  "buffers": [
    {
      "byteLength": 14051016,
      "uri": "scene.bin"
    }
  ],
  "extensionsUsed": [
    "KHR_materials_specular"
  ],
  "images": [
    {
      "uri": "textures/GTA_Mtl_baseColor.png"
    },
    {
      "uri": "textures/GTA_Mtl_metallicRoughness.png"
    },
    {
      "uri": "textures/GTA_Mtl_normal.png"
    },
    {
      "uri": "textures/GTA_Mtl_3_baseColor.png"
    },
    {
      "uri": "textures/GTA_Mtl_4_baseColor.png"
    },
    {
      "uri": "textures/GTA_Mtl_6_baseColor.png"
    },
    {
      "uri": "textures/GTA_Mtl_7_baseColor.png"
    },
    {
      "uri": "textures/GTA_Mtl_9_baseColor.png"
    },
    {
      "uri": "textures/GTA_Mtl_11_baseColor.png"
    },
    {
      "uri": "textures/GTA_Mtl_11_metallicRoughness.png"
    },
    {
      "uri": "textures/GTA_Mtl_11_normal.png"
    },
    {
      "uri": "textures/GTA_Mtl_12_metallicRoughness.png"
    },
    {
      "uri": "textures/GTA_Mtl_16_baseColor.png"
    },
    {
      "uri": "textures/GTA_Mtl_16_metallicRoughness.png"
    },
    {
      "uri": "textures/GTA_Mtl_16_normal.png"
    },
    {
      "uri": "textures/GTA_Mtl_20_normal.png"
    },
    {
      "uri": "textures/GTA_Mtl_25_baseColor.png"
    },
    {
      "uri": "textures/GTA_Mtl_25_metallicRoughness.png"
    },
    {
      "uri": "textures/GTA_Mtl_25_normal.png"
    },
    {
      "uri": "textures/GTA_Mtl_26_baseColor.png"
    },
    {
      "uri": "textures/GTA_Mtl_26_metallicRoughness.png"
    },
    {
      "uri": "textures/GTA_Mtl_26_normal.png"
    }
  ],
  "materials": [
    {
      "doubleSided": true,
      "name": "GTA_Mtl",
      "normalTexture": {
        "index": 2
      },
      "pbrMetallicRoughness": {
        "baseColorTexture": {
          "index": 0
        },
        "metallicRoughnessTexture": {
          "index": 1
        },
        "roughnessFactor": 0.6
      }
    },
    {
      "doubleSided": true,
      "extensions": {
        "KHR_materials_specular": {
          "specularColorFactor": [
            1.0,
            1.0,
            1.0
          ],
          "specularFactor": 0.5359385982276281
        }
      },
      "name": "GTA_Mtl_0",
      "normalTexture": {
        "index": 2
      },
      "pbrMetallicRoughness": {
        "baseColorTexture": {
          "index": 0
        },
        "metallicRoughnessTexture": {
          "index": 1
        },
        "roughnessFactor": 0.6
      }
    },
    {
      "doubleSided": true,
      "name": "GTA_Mtl_1",
      "normalTexture": {
        "index": 2
      },
      "pbrMetallicRoughness": {
        "baseColorTexture": {
          "index": 0
        },
        "metallicRoughnessTexture": {
          "index": 1
        },
        "roughnessFactor": 0.6
      }
    },
    {
      "doubleSided": true,
      "name": "GTA_Mtl_2",
      "normalTexture": {
        "index": 2
      },
      "pbrMetallicRoughness": {
        "baseColorTexture": {
          "index": 0
        },
        "metallicRoughnessTexture": {
          "index": 1
        },
        "roughnessFactor": 0.6
      }
    },
    {
      "doubleSided": true,
      "name": "GTA_Mtl_3",
      "pbrMetallicRoughness": {
        "baseColorTexture": {
          "index": 3
        },
        "metallicFactor": 0.0,
        "roughnessFactor": 0.501390048281705
      }
    },
    {
      "doubleSided": true,
      "name": "GTA_Mtl_4",
      "pbrMetallicRoughness": {
        "baseColorTexture": {
          "index": 4
        },
        "metallicFactor": 0.0,
        "roughnessFactor": 0.6
      }
    },
    {
      "doubleSided": true,
      "name": "GTA_Mtl_5",
      "pbrMetallicRoughness": {
        "baseColorTexture": {
          "index": 3
        },
        "metallicFactor": 0.0,
        "roughnessFactor": 0.6
      }
    },
    {
      "doubleSided": true,
      "name": "GTA_Mtl_6",
      "pbrMetallicRoughness": {
        "baseColorTexture": {
          "index": 5
        },
        "metallicFactor": 0.0,
        "roughnessFactor": 0.6
      }
    },
    {
      "doubleSided": true,
      "name": "GTA_Mtl_7",
      "pbrMetallicRoughness": {
        "baseColorTexture": {
          "index": 6
        },
        "metallicFactor": 0.0,
        "roughnessFactor": 0.6
      }
    },
    {
      "doubleSided": true,
      "name": "GTA_Mtl_8",
      "pbrMetallicRoughness": {
        "baseColorTexture": {
          "index": 5
        },
        "metallicFactor": 0.0,
        "roughnessFactor": 0.6
      }
    },
    {
      "doubleSided": true,
      "name": "GTA_Mtl_9",
      "pbrMetallicRoughness": {
        "baseColorTexture": {
          "index": 7
        },
        "metallicFactor": 0.0,
        "roughnessFactor": 0.6
      }
    },
    {
      "doubleSided": true,
      "name": "GTA_Mtl_10",
      "pbrMetallicRoughness": {
        "baseColorTexture": {
          "index": 3
        },
        "metallicFactor": 0.0,
        "roughnessFactor": 0.6
      }
    },
    {
      "doubleSided": true,
      "name": "GTA_Mtl_11",
      "normalTexture": {
        "index": 10
      },
      "pbrMetallicRoughness": {
        "baseColorTexture": {
          "index": 8
        },
        "metallicFactor": 0.0,
        "metallicRoughnessTexture": {
          "index": 9
        }
      }
    },
    {
      "doubleSided": true,
      "name": "GTA_Mtl_12",
      "normalTexture": {
        "index": 10
      },
      "pbrMetallicRoughness": {
        "baseColorTexture": {
          "index": 8
        },
        "metallicRoughnessTexture": {
          "index": 11
        },
        "roughnessFactor": 0.6
      }
    },
    {
      "doubleSided": true,
      "name": "GTA_Mtl_13",
      "normalTexture": {
        "index": 10
      },
      "pbrMetallicRoughness": {
        "baseColorTexture": {
          "index": 8
        },
        "metallicRoughnessTexture": {
          "index": 11
        },
        "roughnessFactor": 0.6
      }
    },
    {
      "doubleSided": true,
      "name": "GTA_Mtl_14",
      "normalTexture": {
        "index": 10
      },
      "pbrMetallicRoughness": {
        "baseColorTexture": {
          "index": 8
        },
        "metallicRoughnessTexture": {
          "index": 11
        },
        "roughnessFactor": 0.6
      }
    },
    {
      "doubleSided": true,
      "name": "GTA_Mtl_15",
      "normalTexture": {
        "index": 10
      },
      "pbrMetallicRoughness": {
        "baseColorTexture": {
          "index": 8
        },
        "metallicRoughnessTexture": {
          "index": 11
        },
        "roughnessFactor": 0.6
      }
    },
    {
      "doubleSided": true,
      "name": "GTA_Mtl_16",
      "normalTexture": {
        "index": 14
      },
      "pbrMetallicRoughness": {
        "baseColorTexture": {
          "index": 12
        },
        "metallicRoughnessTexture": {
          "index": 13
        },
        "roughnessFactor": 0.6
      }
    },
    {
      "doubleSided": true,
      "name": "GTA_Mtl_17",
      "normalTexture": {
        "index": 14
      },
      "pbrMetallicRoughness": {
        "baseColorTexture": {
          "index": 12
        },
        "metallicRoughnessTexture": {
          "index": 13
        },
        "roughnessFactor": 0.6
      }
    },
    {
      "doubleSided": true,
      "name": "GTA_Mtl_18",
      "normalTexture": {
        "index": 14
      },
      "pbrMetallicRoughness": {
        "baseColorTexture": {
          "index": 12
        },
        "metallicRoughnessTexture": {
          "index": 13
        },
        "roughnessFactor": 0.6
      }
    },
    {
      "doubleSided": true,
      "name": "GTA_Mtl_19",
      "normalTexture": {
        "index": 14
      },
      "pbrMetallicRoughness": {
        "baseColorTexture": {
          "index": 12
        },
        "metallicRoughnessTexture": {
          "index": 13
        },
        "roughnessFactor": 0.6
      }
    },
    {
      "doubleSided": true,
      "name": "GTA_Mtl_20",
      "normalTexture": {
        "index": 15
      },
      "pbrMetallicRoughness": {
        "baseColorTexture": {
          "index": 12
        },
        "metallicRoughnessTexture": {
          "index": 13
        },
        "roughnessFactor": 0.6
      }
    },
    {
      "doubleSided": true,
      "name": "GTA_Mtl_21",
      "normalTexture": {
        "index": 14
      },
      "pbrMetallicRoughness": {
        "baseColorTexture": {
          "index": 12
        },
        "metallicRoughnessTexture": {
          "index": 13
        },
        "roughnessFactor": 0.6
      }
    },
    {
      "doubleSided": true,
      "name": "GTA_Mtl_22",
      "normalTexture": {
        "index": 15
      },
      "pbrMetallicRoughness": {
        "baseColorTexture": {
          "index": 12
        },
        "metallicRoughnessTexture": {
          "index": 13
        },
        "roughnessFactor": 0.6
      }
    },
    {
      "doubleSided": true,
      "name": "GTA_Mtl_23",
      "pbrMetallicRoughness": {
        "baseColorTexture": {
          "index": 12
        },
        "metallicFactor": 0.0,
        "roughnessFactor": 0.6
      }
    },
    {
      "doubleSided": true,
      "name": "GTA_Mtl_24",
      "normalTexture": {
        "index": 14
      },
      "pbrMetallicRoughness": {
        "baseColorTexture": {
          "index": 12
        },
        "metallicRoughnessTexture": {
          "index": 13
        },
        "roughnessFactor": 0.6
      }
    },
    {
      "doubleSided": true,
      "name": "GTA_Mtl_25",
      "normalTexture": {
        "index": 18
      },
      "pbrMetallicRoughness": {
        "baseColorTexture": {
          "index": 16
        },
        "metallicRoughnessTexture": {
          "index": 17
        },
        "roughnessFactor": 0.6
      }
    },
    {
      "doubleSided": true,
      "extensions": {
        "KHR_materials_specular": {
          "specularColorFactor": [
            1.0,
            1.0,
            1.0
          ],
          "specularFactor": 1.0
        }
      },
      "name": "GTA_Mtl_26",
      "normalTexture": {
        "index": 21
      },
      "pbrMetallicRoughness": {
        "baseColorTexture": {
          "index": 19
        },
        "metallicRoughnessTexture": {
          "index": 20
        },
        "roughnessFactor": 0.6
      }
    }
  ],
  "meshes": [
    {
      "name": "MS_land_GTA_Mtl_0",
      "primitives": [
        {
          "attributes": {
            "NORMAL": 1,
            "POSITION": 0,
            "TANGENT": 2,
            "TEXCOORD_0": 3
          },
          "indices": 4,
          "material": 0,
          "mode": 4
        }
      ]
    },
    {
      "name": "MS_land_GTA_Mtl_0",
      "primitives": [
        {
          "attributes": {
            "NORMAL": 6,
            "POSITION": 5,
            "TANGENT": 7,
            "TEXCOORD_0": 8
          },
          "indices": 9,
          "material": 1,
          "mode": 4
        }
      ]
    },
    {
      "name": "MS_land_GTA_Mtl_0",
      "primitives": [
        {
          "attributes": {
            "NORMAL": 11,
            "POSITION": 10,
            "TANGENT": 12,
            "TEXCOORD_0": 13
          },
          "indices": 14,
          "material": 2,
          "mode": 4
        }
      ]
    },
    {
      "name": "MS_land_GTA_Mtl_0",
      "primitives": [
        {
          "attributes": {
            "NORMAL": 16,
            "POSITION": 15,
            "TANGENT": 17,
            "TEXCOORD_0": 18
          },
          "indices": 19,
          "material": 3,
          "mode": 4
        }
      ]
    },
    {
      "name": "Megumi Sukuna_GTA_Mtl_0",
      "primitives": [
        {
          "attributes": {
            "NORMAL": 21,
            "POSITION": 20,
            "TEXCOORD_0": 22
          },
          "indices": 23,
          "material": 4,
          "mode": 4
        }
      ]
    },
    {
      "name": "Megumi Sukuna_GTA_Mtl_0",
      "primitives": [
        {
          "attributes": {
            "NORMAL": 25,
            "POSITION": 24,
            "TEXCOORD_0": 26
          },
          "indices": 27,
          "material": 5,
          "mode": 4
        }
      ]
    },
    {
      "name": "Megumi Sukuna_GTA_Mtl_0",
      "primitives": [
        {
          "attributes": {
            "NORMAL": 29,
            "POSITION": 28,
            "TEXCOORD_0": 30
          },
          "indices": 31,
          "material": 6,
          "mode": 4
        }
      ]
    },
    {
      "name": "Megumi Sukuna_GTA_Mtl_0",
      "primitives": [
        {
          "attributes": {
            "NORMAL": 33,
            "POSITION": 32,
            "TEXCOORD_0": 34
          },
          "indices": 35,
          "material": 7,
          "mode": 4
        }
      ]
    },
    {
      "name": "Megumi Sukuna_GTA_Mtl_0",
      "primitives": [
        {
          "attributes": {
            "NORMAL": 37,
            "POSITION": 36,
            "TEXCOORD_0": 38
          },
          "indices": 39,
          "material": 8,
          "mode": 4
        }
      ]
    },
    {
      "name": "Megumi Sukuna_GTA_Mtl_0",
      "primitives": [
        {
          "attributes": {
            "NORMAL": 41,
            "POSITION": 40,
            "TEXCOORD_0": 42
          },
          "indices": 43,
          "material": 9,
          "mode": 4
        }
      ]
    },
    {
      "name": "Megumi Sukuna_GTA_Mtl_0",
      "primitives": [
        {
          "attributes": {
            "NORMAL": 45,
            "POSITION": 44,
            "TEXCOORD_0": 46
          },
          "indices": 47,
          "material": 10,
          "mode": 4
        }
      ]
    },
    {
      "name": "Megumi Sukuna_GTA_Mtl_0",
      "primitives": [
        {
          "attributes": {
            "NORMAL": 49,
            "POSITION": 48,
            "TEXCOORD_0": 50
          },
          "indices": 51,
          "material": 11,
          "mode": 4
        }
      ]
    },
    {
      "name": "MS_mouth_GTA_Mtl_0",
      "primitives": [
        {
          "attributes": {
            "NORMAL": 53,
            "POSITION": 52,
            "TANGENT": 54,
            "TEXCOORD_0": 55
          },
          "indices": 56,
          "material": 12,
          "mode": 4
        }
      ]
    },
    {
      "name": "MS_mouth_GTA_Mtl_0",
      "primitives": [
        {
          "attributes": {
            "NORMAL": 58,
            "POSITION": 57,
            "TANGENT": 59,
            "TEXCOORD_0": 60
          },
          "indices": 61,
          "material": 13,
          "mode": 4
        }
      ]
    },
    {
      "name": "MS_mouth_GTA_Mtl_0",
      "primitives": [
        {
          "attributes": {
            "NORMAL": 63,
            "POSITION": 62,
            "TANGENT": 64,
            "TEXCOORD_0": 65
          },
          "indices": 66,
          "material": 14,
          "mode": 4
        }
      ]
    },
    {
      "name": "MS_mouth_GTA_Mtl_0",
      "primitives": [
        {
          "attributes": {
            "NORMAL": 68,
            "POSITION": 67,
            "TANGENT": 69,
            "TEXCOORD_0": 70
          },
          "indices": 71,
          "material": 15,
          "mode": 4
        }
      ]
    },
    {
      "name": "MS_mouth_GTA_Mtl_0",
      "primitives": [
        {
          "attributes": {
            "NORMAL": 73,
            "POSITION": 72,
            "TANGENT": 74,
            "TEXCOORD_0": 75
          },
          "indices": 76,
          "material": 16,
          "mode": 4
        }
      ]
    },
    {
      "name": "MS_skull_side3_GTA_Mtl_0",
      "primitives": [
        {
          "attributes": {
            "NORMAL": 78,
            "POSITION": 77,
            "TANGENT": 79,
            "TEXCOORD_0": 80
          },
          "indices": 81,
          "material": 17,
          "mode": 4
        }
      ]
    },
    {
      "name": "MS_skull_side3_GTA_Mtl_0",
      "primitives": [
        {
          "attributes": {
            "NORMAL": 83,
            "POSITION": 82,
            "TANGENT": 84,
            "TEXCOORD_0": 85
          },
          "indices": 86,
          "material": 18,
          "mode": 4
        }
      ]
    },
    {
      "name": "MS_skull_side2_GTA_Mtl_0",
      "primitives": [
        {
          "attributes": {
            "NORMAL": 88,
            "POSITION": 87,
            "TANGENT": 89,
            "TEXCOORD_0": 90
          },
          "indices": 91,
          "material": 19,
          "mode": 4
        }
      ]
    },
    {
      "name": "MS_skull_side2_GTA_Mtl_0",
      "primitives": [
        {
          "attributes": {
            "NORMAL": 93,
            "POSITION": 92,
            "TANGENT": 94,
            "TEXCOORD_0": 95
          },
          "indices": 96,
          "material": 20,
          "mode": 4
        }
      ]
    },
    {
      "name": "MS_skull_side1_GTA_Mtl_0",
      "primitives": [
        {
          "attributes": {
            "NORMAL": 98,
            "POSITION": 97,
            "TANGENT": 99,
            "TEXCOORD_0": 100
          },
          "indices": 101,
          "material": 21,
          "mode": 4
        }
      ]
    },
    {
      "name": "MS_skull_side1_GTA_Mtl_0",
      "primitives": [
        {
          "attributes": {
            "NORMAL": 103,
            "POSITION": 102,
            "TANGENT": 104,
            "TEXCOORD_0": 105
          },
          "indices": 106,
          "material": 22,
          "mode": 4
        }
      ]
    },
    {
      "name": "MS_bull_GTA_Mtl_0",
      "primitives": [
        {
          "attributes": {
            "NORMAL": 108,
            "POSITION": 107,
            "TANGENT": 109,
            "TEXCOORD_0": 110
          },
          "indices": 111,
          "material": 23,
          "mode": 4
        }
      ]
    },
    {
      "name": "MS_skull_main_GTA_Mtl_0",
      "primitives": [
        {
          "attributes": {
            "NORMAL": 113,
            "POSITION": 112,
            "TEXCOORD_0": 114
          },
          "indices": 115,
          "material": 24,
          "mode": 4
        }
      ]
    },
    {
      "name": "MS_skull_main_GTA_Mtl_0",
      "primitives": [
        {
          "attributes": {
            "NORMAL": 117,
            "POSITION": 116,
            "TANGENT": 118,
            "TEXCOORD_0": 119
          },
          "indices": 120,
          "material": 25,
          "mode": 4
        }
      ]
    },
    {
      "name": "MS_tree_GTA_Mtl_0",
      "primitives": [
        {
          "attributes": {
            "NORMAL": 122,
            "POSITION": 121,
            "TANGENT": 123,
            "TEXCOORD_0": 124
          },
          "indices": 125,
          "material": 26,
          "mode": 4
        }
      ]
    },
    {
      "name": "MS_shrine_GTA_Mtl_0",
      "primitives": [
        {
          "attributes": {
            "NORMAL": 127,
            "POSITION": 126,
            "TANGENT": 128,
            "TEXCOORD_0": 129
          },
          "indices": 130,
          "material": 27,
          "mode": 4
        }
      ]
    }
  ],
  "nodes": [
    {
      "children": [
        1
      ],
      "matrix": [
        1.0,
        0.0,
        0.0,
        0.0,
        0.0,
        2.220446049250313e-16,
        -1.0,
        0.0,
        0.0,
        1.0,
        2.220446049250313e-16,
        0.0,
        0.0,
        0.0,
        0.0,
        1.0
      ],
      "name": "Sketchfab_model"
    },
    {
      "children": [
        2
      ],
      "matrix": [
        0.02539999969303608,
        0.0,
        0.0,
        0.0,
        0.0,
        0.0,
        0.02539999969303608,
        0.0,
        0.0,
        -0.02539999969303608,
        0.0,
        0.0,
        0.0,
        0.0,
        0.0,
        1.0
      ],
      "name": "Malevolent Shrine.fbx"
    },
    {
      "children": [
        3,
        8,
        17,
        23,
        27,
        31,
        35,
        37,
        40,
        42
      ],
      "name": "RootNode"
    },
    {
      "children": [
        4,
        5,
        6,
        7
      ],
      "matrix": [
        1.0,
        0.0,
        0.0,
        0.0,
        0.0,
        2.220446049250313e-16,
        -1.0,
        0.0,
        0.0,
        1.0,
        2.220446049250313e-16,
        0.0,
        0.0,
        0.0,
        0.0,
        1.0
      ],
      "name": "MS_land"
    },
    {
      "mesh": 0,
      "name": "MS_land_GTA_Mtl_0"
    },
    {
      "mesh": 1,
      "name": "MS_land_GTA_Mtl_0"
    },
    {
      "mesh": 2,
      "name": "MS_land_GTA_Mtl_0"
    },
    {
      "mesh": 3,
      "name": "MS_land_GTA_Mtl_0"
    },
    {
      "children": [
        9,
        10,
        11,
        12,
        13,
        14,
        15,
        16
      ],
      "matrix": [
        0.9999999999999847,
        -3.970466940254533e-23,
        1.7484555314694902e-07,
        0.0,
        1.7484555314694902e-07,
        3.3306690738754696e-16,
        -0.9999999999999847,
        0.0,
        -3.970466940254533e-23,
        1.0,
        3.3306690738754696e-16,
        0.0,
        0.0,
        0.31483444571495056,
        -5.381897926330566,
        1.0
      ],
      "name": "Megumi Sukuna"
    },
    {
      "mesh": 4,
      "name": "Megumi Sukuna_GTA_Mtl_0"
    },
    {
      "mesh": 5,
      "name": "Megumi Sukuna_GTA_Mtl_0"
    },
    {
      "mesh": 6,
      "name": "Megumi Sukuna_GTA_Mtl_0"
    },
    {
      "mesh": 7,
      "name": "Megumi Sukuna_GTA_Mtl_0"
    },
    {
      "mesh": 8,
      "name": "Megumi Sukuna_GTA_Mtl_0"
    },
    {
      "mesh": 9,
      "name": "Megumi Sukuna_GTA_Mtl_0"
    },
    {
      "mesh": 10,
      "name": "Megumi Sukuna_GTA_Mtl_0"
    },
    {
      "mesh": 11,
      "name": "Megumi Sukuna_GTA_Mtl_0"
    },
    {
      "children": [
        18,
        19,
        20,
        21,
        22
      ],
      "matrix": [
        1.0,
        0.0,
        0.0,
        0.0,
        0.0,
        2.220446049250313e-16,
        -1.0,
        0.0,
        0.0,
        1.0,
        2.220446049250313e-16,
        0.0,
        0.0,
        0.0,
        0.0,
        1.0
      ],
      "name": "MS_mouth"
    },
    {
      "mesh": 12,
      "name": "MS_mouth_GTA_Mtl_0"
    },
    {
      "mesh": 13,
      "name": "MS_mouth_GTA_Mtl_0"
    },
    {
      "mesh": 14,
      "name": "MS_mouth_GTA_Mtl_0"
    },
    {
      "mesh": 15,
      "name": "MS_mouth_GTA_Mtl_0"
    },
    {
      "mesh": 16,
      "name": "MS_mouth_GTA_Mtl_0"
    },
    {
      "children": [
        24
      ],
      "matrix": [
        1.0,
        0.0,
        0.0,
        0.0,
        0.0,
        2.220446049250313e-16,
        -1.0,
        0.0,
        0.0,
        1.0,
        2.220446049250313e-16,
        0.0,
        0.0,
        0.0,
        0.0,
        1.0
      ],
      "name": "MS_skull_side3"
    },
    {
      "children": [
        25,
        26
      ],
      "matrix": [
        6.123233995736766e-17,
        -1.0,
        0.0,
        0.0,
        1.0,
        6.123233995736766e-17,
        0.0,
        0.0,
        -0.0,
        0.0,
        1.0,
        0.0,
        0.0,
        0.0,
        0.0,
        1.0
      ],
      "name": "Object_24"
    },
    {
      "mesh": 17,
      "name": "MS_skull_side3_GTA_Mtl_0"
    },
    {
      "mesh": 18,
      "name": "MS_skull_side3_GTA_Mtl_0"
    },
    {
      "children": [
        28
      ],
      "matrix": [
        1.0,
        0.0,
        0.0,
        0.0,
        0.0,
        2.220446049250313e-16,
        -1.0,
        0.0,
        0.0,
        1.0,
        2.220446049250313e-16,
        0.0,
        0.0,
        0.0,
        0.0,
        1.0
      ],
      "name": "MS_skull_side2"
    },
    {
      "children": [
        29,
        30
      ],
      "matrix": [
        -1.0,
        1.2246467991473532e-16,
        0.0,
        0.0,
        -1.2246467991473532e-16,
        -1.0,
        0.0,
        0.0,
        0.0,
        0.0,
        1.0,
        0.0,
        0.0,
        0.0,
        0.0,
        1.0
      ],
      "name": "Object_28"
    },
    {
      "mesh": 19,
      "name": "MS_skull_side2_GTA_Mtl_0"
    },
    {
      "mesh": 20,
      "name": "MS_skull_side2_GTA_Mtl_0"
    },
    {
      "children": [
        32
      ],
      "matrix": [
        0.9999999999999929,
        -2.6469779601696886e-23,
        1.1920928955078042e-07,
        0.0,
        1.1920928955078042e-07,
        2.220446049250313e-16,
        -0.999999999999993,
        0.0,
        -1.3234889800848443e-23,
        1.0,
        2.220446049250313e-16,
        0.0,
        0.0,
        0.0,
        0.0,
        1.0
      ],
      "name": "MS_skull_side1"
    },
    {
      "children": [
        33,
        34
      ],
      "matrix": [
        6.123233995736766e-17,
        1.0,
        0.0,
        0.0,
        -1.0,
        6.123233995736766e-17,
        0.0,
        0.0,
        0.0,
        -0.0,
        1.0,
        0.0,
        0.0,
        0.0,
        0.0,
        1.0
      ],
      "name": "Object_32"
    },
    {
      "mesh": 21,
      "name": "MS_skull_side1_GTA_Mtl_0"
    },
    {
      "mesh": 22,
      "name": "MS_skull_side1_GTA_Mtl_0"
    },
    {
      "children": [
        36
      ],
      "matrix": [
        0.9999999999999847,
        -3.970466940254533e-23,
        1.7484555314694902e-07,
        0.0,
        1.7484555314694902e-07,
        3.3306690738754696e-16,
        -0.9999999999999847,
        0.0,
        -3.970466940254533e-23,
        1.0,
        3.3306690738754696e-16,
        0.0,
        0.0,
        0.0,
        0.0,
        1.0
      ],
      "name": "MS_bull"
    },
    {
      "mesh": 23,
      "name": "MS_bull_GTA_Mtl_0"
    },
    {
      "children": [
        38,
        39
      ],
      "matrix": [
        1.0,
        0.0,
        0.0,
        0.0,
        0.0,
        2.220446049250313e-16,
        -1.0,
        0.0,
        0.0,
        1.0,
        2.220446049250313e-16,
        0.0,
        0.0,
        0.0,
        0.0,
        1.0
      ],
      "name": "MS_skull_main"
    },
    {
      "mesh": 24,
      "name": "MS_skull_main_GTA_Mtl_0"
    },
    {
      "mesh": 25,
      "name": "MS_skull_main_GTA_Mtl_0"
    },
    {
      "children": [
        41
      ],
      "matrix": [
        1.0,
        0.0,
        0.0,
        0.0,
        0.0,
        2.220446049250313e-16,
        -1.0,
        0.0,
        0.0,
        1.0,
        2.220446049250313e-16,
        0.0,
        0.0,
        0.0,
        0.0,
        1.0
      ],
      "name": "MS_tree"
    },
    {
      "mesh": 26,
      "name": "MS_tree_GTA_Mtl_0"
    },
    {
      "children": [
        43
      ],
      "matrix": [
        1.0,
        0.0,
        0.0,
        0.0,
        0.0,
        2.220446049250313e-16,
        -1.0,
        0.0,
        0.0,
        1.0,
        2.220446049250313e-16,
        0.0,
        0.0,
        0.0,
        0.0,
        1.0
      ],
      "name": "MS_shrine"
    },
    {
      "mesh": 27,
      "name": "MS_shrine_GTA_Mtl_0"
    }
  ],
  "samplers": [
    {
      "magFilter": 9729,
      "minFilter": 9987,
      "wrapS": 10497,
      "wrapT": 10497
    }
  ],
  "scene": 0,
  "scenes": [
    {
      "name": "Sketchfab_Scene",
      "nodes": [
        0
      ]
    }
  ],
  "textures": [
    {
      "sampler": 0,
      "source": 0
    },
    {
      "sampler": 0,
      "source": 1
    },
    {
      "sampler": 0,
      "source": 2
    },
    {
      "sampler": 0,
      "source": 3
    },
    {
      "sampler": 0,
      "source": 4
    },
    {
      "sampler": 0,
      "source": 5
    },
    {
      "sampler": 0,
      "source": 6
    },
    {
      "sampler": 0,
      "source": 7
    },
    {
      "sampler": 0,
      "source": 8
    },
    {
      "sampler": 0,
      "source": 9
    },
    {
      "sampler": 0,
      "source": 10
    },
    {
      "sampler": 0,
      "source": 11
    },
    {
      "sampler": 0,
      "source": 12
    },
    {
      "sampler": 0,
      "source": 13
    },
    {
      "sampler": 0,
      "source": 14
    },
    {
      "sampler": 0,
      "source": 15
    },
    {
      "sampler": 0,
      "source": 16
    },
    {
      "sampler": 0,
      "source": 17
    },
    {
      "sampler": 0,
      "source": 18
    },
    {
      "sampler": 0,
      "source": 19
    },
    {
      "sampler": 0,
      "source": 20
    },
    {
      "sampler": 0,
      "source": 21
    }
  ]
}
